<svg width="88" height="125" viewBox="0 0 88 125" fill="none" xmlns="http://www.w3.org/2000/svg">
<g clip-path="url(#clip0_8700_57494)">
<path d="M47.3672 0C48.9159 0.490282 50.5334 0.326854 52.1165 0.468491C54.2847 0.664604 56.4643 0.686394 58.5981 1.20936C61.5578 1.92844 62.7968 3.15959 63.1753 6.03591C63.7833 10.6228 64.3454 15.2205 65.6532 19.6875C66.4104 22.2806 67.374 24.7865 69.5881 26.6495C50.694 26.6495 31.7885 26.6495 12.8945 26.6386C15.5789 24.4378 16.4278 21.3545 17.2538 18.2821C18.3436 14.2182 18.8828 10.0671 19.3302 5.90517C19.5711 3.67166 20.7412 2.22261 22.9323 1.48174C25.1349 0.74087 27.4637 0.697289 29.758 0.512072C31.4673 0.38133 33.1766 0.326854 34.8859 0.228798C35.1268 0.217903 35.4136 0.294169 35.5513 0H47.3787L47.3672 0Z" fill="#05084D"/>
<path d="M12.8823 26.6277C31.7763 26.6277 50.6818 26.6277 69.5758 26.6386C76.4933 27.8371 81.0017 32.0644 82.2865 38.5797C82.3668 38.9719 82.3324 39.386 82.3324 39.7891C82.3324 45.4328 82.3439 51.0656 82.3554 56.7092C82.3554 60.577 82.3554 64.4557 82.3554 68.3235C82.3554 73.7601 82.2292 79.2077 82.3554 84.6335C82.5045 90.7893 77.2848 96.8034 71.3998 97.9365C70.7803 98.0563 70.2297 98.4268 69.5643 98.3941C50.6703 98.3941 31.7648 98.3941 12.8708 98.3941C9.48664 97.7404 6.44662 96.4438 4.04901 94.0251C1.49081 91.4321 0.079779 88.2943 0.0683072 84.786C-0.0119952 69.936 -0.0808259 55.075 0.0912508 40.2249C0.160081 33.873 4.34728 28.9266 10.8977 27.0853C11.5516 26.9001 12.2169 26.7694 12.8708 26.606L12.8823 26.6277ZM41.2864 32.9687C34.2542 32.9687 27.222 33.0777 20.2013 32.936C13.0085 32.7835 7.29553 38.1766 7.3873 45.0405C7.55938 56.6766 7.43319 68.3235 7.44466 79.9595C7.44466 80.8965 7.45613 81.8443 7.65115 82.7486C8.84422 88.2834 13.6853 92.0422 19.6621 92.0531C33.933 92.0749 48.2039 92.0531 62.4748 92.0531C69.92 92.0531 75.1281 87.0849 75.1396 79.9704C75.1396 68.3344 75.1396 56.6875 75.1396 45.0514C75.1396 37.8497 69.9773 32.9687 62.3715 32.9578C55.3393 32.9578 48.3186 32.9578 41.2864 32.9578V32.9687Z" fill="#27A6E2"/>
<path d="M12.8828 98.4268C31.7768 98.4268 50.6823 98.4268 69.5763 98.4268C66.5248 101.107 65.7448 104.768 64.8844 108.363C64.0125 112.013 63.5651 115.739 63.1177 119.454C62.8539 121.612 61.569 122.897 59.4926 123.605C57.6113 124.248 55.6381 124.325 53.6765 124.499C44.5564 125.294 35.4478 125.12 26.3392 124.292C25.1461 124.183 23.9645 123.976 22.8403 123.573C20.7066 122.81 19.5594 121.383 19.3185 119.204C18.7908 114.432 18.1713 109.671 16.7488 105.04C15.9917 102.567 15.0625 100.17 12.8828 98.4377V98.4268Z" fill="#05084D"/>
<path d="M82.3672 68.3236C82.3672 64.4559 82.3672 60.5772 82.3672 56.7094C83.5603 56.6876 84.7648 56.6222 85.9579 56.644C87.2083 56.6658 87.9539 57.3522 87.9769 58.5507C88.0228 61.1982 88.0228 63.8457 87.9769 66.4823C87.9539 67.6808 87.1968 68.3781 85.9579 68.389C84.7648 68.4108 83.5603 68.3454 82.3672 68.3236Z" fill="#54C1ED"/>
<path d="M20 63.4043C20 57.4449 20 51.4855 20 45.5261C20 43.0352 21.4108 41.6665 23.984 41.6665C35.3503 41.6665 46.7167 41.6665 58.0742 41.6665C60.5675 41.6665 61.9961 43.0182 61.9961 45.4156C61.9961 52.9307 61.9961 60.4459 61.9961 67.961C61.9961 68.1395 61.9961 68.3265 61.9783 68.5051C61.8985 69.1682 61.4992 69.5422 60.7982 69.5507C60.0972 69.5507 59.6979 69.1767 59.5915 68.5306C59.556 68.301 59.5648 68.063 59.5648 67.8335C59.5648 65.5296 59.5471 63.2173 59.5737 60.9134C59.5737 60.4289 59.4406 60.3183 58.9437 60.3183C46.9829 60.3353 35.0309 60.3353 23.0701 60.3183C22.5288 60.3183 22.4046 60.4714 22.4135 60.9644C22.4312 67.808 22.4223 74.643 22.4312 81.4865C22.4312 82.5322 22.8128 82.8978 23.8775 82.8978C35.2971 82.8978 46.7167 82.8978 58.1363 82.8978C59.2099 82.8978 59.5648 82.5492 59.5648 81.478C59.5648 79.1742 59.5648 76.8618 59.5648 74.558C59.5648 74.303 59.5648 74.0394 59.6181 73.7844C59.7512 73.1638 60.1948 72.8322 60.8337 72.8577C61.4637 72.8832 61.8896 73.2233 61.9694 73.8609C61.9961 74.0394 61.9961 74.2264 61.9961 74.405C61.9961 76.7853 62.0049 79.1742 61.9961 81.5546C61.9783 83.8499 60.5409 85.2271 58.1629 85.2271C46.7167 85.2271 35.2705 85.2271 23.8243 85.2271C21.4729 85.2271 20.0089 83.7989 20 81.5205C20 75.4846 20 69.4487 20 63.4043ZM28.2697 49.8022C27.8526 50.4143 27.48 50.9159 27.1517 51.443C26.7967 52.0211 26.3087 52.2591 25.6166 52.2336C24.7826 52.1996 23.9396 52.2506 23.1056 52.2166C22.6087 52.1996 22.3957 52.2846 22.4135 52.8372C22.4578 54.3419 22.449 55.8467 22.4135 57.3429C22.4046 57.8615 22.5732 57.9805 23.0878 57.9805C35.0132 57.9635 46.9474 57.9635 58.8727 57.9805C59.4672 57.9805 59.5737 57.7935 59.5737 57.2749C59.556 53.3898 59.5648 49.5047 59.5648 45.6196C59.5648 44.2424 59.2987 43.9874 57.8701 43.9874C46.6191 43.9874 35.3592 43.9874 24.1082 43.9874C23.9485 43.9874 23.7799 43.9874 23.6202 43.9874C22.866 44.0129 22.4578 44.4124 22.4401 45.101C22.4046 46.5547 22.4401 48 22.4223 49.4537C22.4223 49.7937 22.5288 49.9128 22.8837 49.8958C23.4782 49.8702 24.0727 49.8617 24.6672 49.8958C25.1197 49.9213 25.4037 49.7937 25.6432 49.4027C26.149 48.5781 26.6991 47.7789 27.267 46.9968C27.8349 46.2147 28.7843 46.2317 29.3522 46.9968C29.5829 47.3114 29.7781 47.6514 29.991 47.983C30.7896 49.2412 31.5882 50.5078 32.4489 51.8851C33.0434 50.5589 33.5757 49.3772 34.0992 48.1955C34.3566 47.6174 34.5873 47.0223 35.377 46.9543C36.1312 46.8948 36.4595 47.4134 36.8055 47.9235C37.2048 48.51 37.613 49.0881 38.0034 49.6747C38.1897 49.9553 38.3938 50.1083 38.7753 50.1083C41.1533 50.0913 43.5224 50.0913 45.9004 50.1083C46.2819 50.1083 46.4505 50.0488 46.5304 49.6237C46.8853 47.5664 48.6421 46.5037 50.6829 47.1498C51.4726 47.4049 52.147 47.4134 52.9367 47.1498C54.4362 46.6398 55.8914 47.1668 56.6722 48.374C57.4442 49.5812 57.2667 51.0604 56.1754 52.1486C55.2171 53.1007 54.241 54.0274 53.2472 54.9455C52.2978 55.8297 51.2952 55.8127 50.3369 54.9115C49.6004 54.2229 48.864 53.5343 48.163 52.8202C47.8613 52.5142 47.533 52.4036 47.0982 52.4036C44.5073 52.4206 41.9164 52.3356 39.3255 52.4376C37.7549 52.5057 36.5038 52.2761 35.8561 50.7459C35.8384 50.7119 35.7674 50.7034 35.652 50.6439C35.0575 51.9701 34.463 53.2878 33.8863 54.6055C33.6645 55.1155 33.345 55.5151 32.7328 55.5491C32.1206 55.5916 31.7568 55.2686 31.4551 54.7755C30.4347 53.1262 29.3965 51.5025 28.2874 49.7597L28.2697 49.8022ZM51.8187 53.0242C51.934 52.9137 52.0405 52.8287 52.1292 52.7352C52.8568 52.0466 53.5756 51.341 54.3031 50.6609C54.6226 50.3633 54.8178 50.0233 54.5782 49.6322C54.3298 49.2327 53.9305 49.2327 53.5134 49.4197C52.3777 49.9298 51.2419 49.9468 50.0973 49.4197C49.698 49.2327 49.2899 49.2071 49.0237 49.5982C48.7486 49.9978 48.9704 50.3378 49.281 50.6269C50.0263 51.341 50.7628 52.0466 51.5081 52.7607C51.5969 52.8457 51.7033 52.9222 51.8098 53.0072L51.8187 53.0242Z" fill="#27A6E2"/>
<path d="M32.1192 64.4002C32.7978 64.4002 33.4837 64.3853 34.1623 64.4002C34.8265 64.4151 35.2597 64.8328 35.2597 65.4071C35.2597 65.9815 34.8265 66.4141 34.1696 66.429C33.2454 66.4514 32.3213 66.4588 31.4044 66.429C30.9424 66.4141 30.6752 66.4887 30.6608 67.063C30.6391 67.6448 30.5236 68.2341 30.3865 68.8084C30.2782 69.2634 30.4298 69.2783 30.798 69.2485C32.4224 69.0993 33.8375 69.5692 34.9204 70.8894C36.1477 72.3738 36.3427 74.4697 35.433 76.1704C34.5378 77.8486 32.6606 78.8332 30.9063 78.5497C28.9281 78.2365 27.4408 76.8267 27.0438 74.8874C26.8849 74.1266 27.1665 73.5597 27.7585 73.4404C28.3866 73.3061 28.7981 73.6492 28.9858 74.4399C29.3107 75.8347 30.5309 76.7447 31.8015 76.5358C33.2166 76.3046 34.119 75.1186 34.0035 73.6343C33.9024 72.2992 32.7689 71.2698 31.3972 71.2698C30.7763 71.2698 30.1699 71.3743 29.614 71.6726C29.1952 71.8889 28.8054 71.8591 28.4444 71.5607C28.0978 71.2773 28.0401 70.9044 28.1123 70.4568C28.3794 68.8681 28.6176 67.2793 28.8775 65.6906C29.0508 64.624 29.2963 64.4076 30.3576 64.4002C30.9496 64.4002 31.5416 64.4002 32.1336 64.4002H32.1192Z" fill="#27A6E2"/>
<path d="M46.9568 73.8465C45.9449 73.8465 44.9407 73.8683 43.9288 73.8465C42.299 73.8101 41.0477 72.6244 41.0013 71.1041C40.955 69.591 42.1368 68.2817 43.7666 68.2307C45.9217 68.1653 48.0845 68.1653 50.2319 68.2307C51.8462 68.2817 53.0667 69.6347 52.9972 71.1186C52.9277 72.639 51.6686 73.8174 50.0465 73.8538C49.0192 73.8756 47.9841 73.8538 46.949 73.8538L46.9568 73.8465ZM47.0031 71.8533C47.9377 71.8533 48.8801 71.8606 49.8148 71.8533C50.4636 71.8533 50.8653 71.526 50.873 71.0313C50.873 70.5367 50.4945 70.2021 49.8302 70.1948C47.9532 70.1802 46.0762 70.1802 44.1992 70.1948C43.4731 70.1948 43.0869 70.5149 43.1255 71.0532C43.1718 71.6642 43.589 71.8679 44.1837 71.8606C45.1184 71.8533 46.0607 71.8606 46.9954 71.8606L47.0031 71.8533Z" fill="#27A6E2"/>
<path d="M47.13 64.9896C46.0752 64.9896 45.0106 64.9987 43.9557 64.9896C43.0073 64.9805 42.446 64.478 42.4653 63.7014C42.4847 62.9797 43.046 62.4955 43.946 62.4863C46.0945 62.4772 48.2333 62.4772 50.3818 62.4863C51.3109 62.4863 51.9109 63.0345 51.8819 63.7745C51.8625 64.4871 51.2818 64.9713 50.3915 64.9805C49.3076 64.9987 48.214 64.9805 47.13 64.9805V64.9896Z" fill="#27A6E2"/>
<path d="M43.8013 80.2379C42.9787 80.247 42.3496 79.6715 42.3496 78.8949C42.3496 78.1366 42.998 77.5154 43.7916 77.5245C44.5562 77.5245 45.1755 78.1092 45.2046 78.8401C45.2336 79.6167 44.6239 80.2196 43.811 80.2288L43.8013 80.2379Z" fill="#27A6E2"/>
<path d="M51.3984 78.9038C51.3984 79.6804 50.7693 80.256 49.9467 80.2468C49.1628 80.2377 48.5628 79.6713 48.5434 78.9404C48.524 78.1821 49.1628 77.5517 49.9564 77.5426C50.7596 77.5334 51.3984 78.1456 51.3984 78.9038Z" fill="#27A6E2"/>
</g>
<defs>
<clipPath id="clip0_8700_57494">
<rect width="88" height="125" fill="white"/>
</clipPath>
</defs>
</svg>
