<svg width="138" height="125" viewBox="0 0 138 125" fill="none" xmlns="http://www.w3.org/2000/svg">
<g clip-path="url(#clip0_8700_57552)">
<path d="M23.7402 39.7409C23.7402 26.494 23.7402 13.247 23.7402 0H69.0188C69.0188 2.4266 69.0283 4.86183 69.0379 7.28843C68.3228 7.29706 67.6077 7.32297 66.8831 7.32297C55.6231 7.32297 44.3725 7.32297 33.1125 7.32297C32.3593 7.32297 31.7872 7.24525 31.7967 8.27288C31.854 18.1434 31.8444 28.0138 31.854 37.8843C29.3941 39.3523 26.5719 39.5769 23.7498 39.7496L23.7402 39.7409Z" fill="#0D1572"/>
<path d="M69.0284 7.28843C69.0284 4.86183 69.0188 2.4266 69.0093 0H114.288C114.288 13.247 114.288 26.494 114.297 39.7409C111.466 39.5855 108.653 39.3351 106.184 37.8756C106.184 28.0052 106.193 18.1347 106.212 8.26425C106.212 7.66839 106.193 7.3057 105.316 7.3057C93.2074 7.34024 81.0988 7.34888 68.9902 7.35751L69.0188 7.28843H69.0284Z" fill="#05084D"/>
<path d="M138 59.3092C134.854 59.197 131.841 59.741 129.038 61.045C124.404 63.1952 119.504 64.2574 114.298 64.197C111.571 64.0329 108.854 63.7997 106.232 63.0052C103.772 62.3403 101.579 61.0709 99.1669 60.3369C93.3795 58.5838 87.7066 58.8861 82.2148 61.3731C78.0579 63.2557 73.6816 64.266 69.0098 64.1192C69.0098 61.7099 69.0098 59.3092 69.0098 56.8999C72.7663 56.874 76.1987 55.855 79.5833 54.4388C87.4396 51.1572 95.4199 51.0709 103.448 54.007C104.354 54.3351 105.164 54.8964 106.184 54.9655C108.644 56.4595 111.466 56.6754 114.298 56.8308C117.711 56.9431 120.981 56.4163 124.061 55.0346C128.456 53.0571 133.042 51.8222 138 52.0035V59.3265V59.3092Z" fill="#0F84B2"/>
<path d="M106.184 37.8758C108.653 39.3352 111.466 39.5857 114.297 39.7411C118.349 39.9311 122.077 38.9294 125.662 37.3059C129.543 35.5529 133.681 34.8102 138.009 34.9052V42.2282C134.996 42.1073 132.098 42.5736 129.419 43.8085C124.661 45.9933 119.656 47.1936 114.307 47.1159C111.59 46.8914 108.853 46.7359 106.241 45.9242C104.868 45.4233 103.466 44.9915 102.141 44.4043C95.4671 41.4337 88.7931 41.356 82.1095 44.3439C77.9811 46.1832 73.643 47.1677 69.0188 47.0295C69.0188 44.6202 69.0188 42.2022 69.0188 39.7929L68.9902 39.7325C72.6133 39.862 75.9312 38.8948 79.1729 37.5218C87.258 34.0762 95.4385 33.9035 103.705 37.0209C104.525 37.3318 105.259 37.8413 106.193 37.8845L106.184 37.8758Z" fill="#0F84B2"/>
<path d="M106.232 63.0054C108.854 63.7998 111.571 64.033 114.298 64.1971C114.298 84.0071 114.288 103.808 114.326 123.618C114.326 124.732 114.021 125 112.801 125C98.6518 124.957 84.5124 124.974 70.3634 124.974C69.9153 124.974 69.4672 124.948 69.0191 124.94C69.0191 122.53 69.0095 120.112 69 117.703C69.4958 117.686 69.982 117.66 70.4778 117.66C81.7474 117.66 93.017 117.66 104.277 117.66C105.561 117.66 106.203 117.09 106.203 115.95C106.203 98.3076 106.222 80.6565 106.222 63.014L106.232 63.0054Z" fill="#05084D"/>
<path d="M69.0008 117.694C69.0008 120.103 69.0103 122.521 69.0198 124.931C62.6032 124.948 56.1771 124.965 49.7605 124.965C41.5419 124.965 33.3233 124.948 25.1047 124.991C23.9987 124.991 23.7031 124.767 23.7031 123.739C23.7413 103.894 23.7317 84.0413 23.7317 64.1967C26.4681 64.1276 29.1282 63.575 31.8073 63.1777C31.8073 80.8979 31.8264 98.6095 31.7882 116.33C31.7882 117.357 31.9885 117.694 33.2279 117.686C39.7303 117.616 46.2423 117.66 52.7447 117.651C58.1698 117.651 63.5948 117.625 69.0294 117.608L69.0008 117.703V117.694Z" fill="#0D1572"/>
<path d="M31.8063 63.1781C29.1272 63.584 26.4576 64.1367 23.7307 64.1971C18.4296 64.2835 13.4623 63.1177 8.75229 60.9502C6.40684 59.8707 3.88978 59.3094 1.24877 59.3267C0.362072 59.3267 -0.0383701 59.154 -0.000232783 58.2559C0.0760419 56.5546 0.0665076 54.8448 -0.000232783 53.1436C-0.0383701 52.2628 0.209523 51.9605 1.2583 51.9692C5.7013 52.0123 9.8106 53.1436 13.7387 54.9312C16.8946 56.3647 20.2316 56.9346 23.7403 56.831C26.572 56.6842 29.3846 56.4337 31.8445 54.9657C32.3116 54.9743 32.7025 54.7671 33.1125 54.5944C41.7316 50.9847 50.3411 50.9761 58.941 54.6289C62.135 55.9847 65.4148 56.9951 69.0188 56.7878V56.9001C69.0093 59.3094 69.0093 61.7101 69.0093 64.1194V64.2317C64.0514 64.1626 59.3891 63.0831 54.9652 61.0451C52.6388 59.9657 50.1027 59.5253 47.4903 59.2921C41.6839 58.7913 36.7928 61.0883 31.8063 63.1868V63.1781Z" fill="#27A6E2"/>
<path d="M69.0191 39.7929C69.0191 42.2022 69.0191 44.6201 69.0191 47.0295V47.1417C63.9277 47.064 59.151 45.9155 54.6127 43.7998C52.3721 42.7549 49.8932 42.4181 47.3666 42.2022C41.6078 41.7099 36.7644 44.0243 31.8161 46.0968C29.1465 46.5631 26.4578 46.969 23.7405 47.1158C18.4394 47.2022 13.4815 46.0364 8.76205 43.8688C6.42614 42.798 3.89954 42.2194 1.25853 42.2454C0.371838 42.2454 -0.0286045 42.0726 0.00953284 41.1745C0.0858075 39.4733 0.0762732 37.7635 0.00953284 36.0623C-0.0286045 35.1815 0.219288 34.8792 1.26807 34.8878C5.71107 34.931 9.82036 36.0623 13.7485 37.8498C16.9044 39.2834 20.2509 39.8447 23.75 39.7583C26.5817 39.5856 29.3944 39.3611 31.8542 37.893C32.4167 37.893 32.8744 37.608 33.3606 37.4094C41.1788 34.1884 49.1304 33.8861 57.0821 36.8481C60.953 38.2816 64.7191 39.8706 69.0191 39.8101V39.7929Z" fill="#27A6E2"/>
<path d="M23.7305 47.1157C26.4573 46.9689 29.1364 46.563 31.8061 46.0967C31.8156 49.0587 31.8251 52.0121 31.8442 54.9741C29.3748 56.4421 26.5717 56.6925 23.74 56.8393C23.74 53.601 23.74 50.3627 23.74 47.1243L23.7305 47.1157Z" fill="#3F5C85"/>
<path d="M106.184 54.957C106.203 51.9432 106.212 48.9293 106.231 45.9155C108.844 46.7273 111.58 46.8914 114.297 47.1159C114.297 50.3542 114.297 53.5926 114.297 56.8309C111.466 56.6668 108.643 56.4596 106.184 54.9656V54.957Z" fill="#37406A"/>
<path d="M69.0196 72.9879C69.9159 72.9879 70.8216 73.0569 71.7083 72.9879C72.7571 72.9015 73.0813 73.2124 73.0813 74.1968C73.0336 80.5785 73.0527 86.9602 73.0527 93.3419C73.0527 93.7305 73.0527 94.1278 73.0527 94.8877C75.1025 93.0224 76.8855 91.3989 78.6684 89.7754C79.5201 89.004 80.375 89.004 81.2331 89.7754C82.4726 90.8981 83.6834 92.038 84.9515 93.126C85.5522 93.6442 85.514 94.0069 84.942 94.525C79.7076 99.2141 74.5019 103.921 69.2866 108.627C69.1722 108.636 69.0578 108.653 68.9434 108.661V108.644C68.9624 108.074 69.0006 107.504 69.0006 106.943C69.0196 95.639 69.0292 84.335 69.0387 73.031L69.0101 72.9792L69.0196 72.9879Z" fill="#040942"/>
<path d="M68.9609 108.679C69.0753 108.67 69.1898 108.653 69.3042 108.644C69.2088 108.73 69.1039 108.808 69.0086 108.894C68.98 108.825 68.9705 108.756 68.9705 108.679H68.9609Z" fill="#AC9EF8"/>
<path d="M69.0471 73.0395C69.0376 84.3435 69.0281 95.6475 69.009 106.951C69.009 107.521 68.9709 108.091 68.9518 108.653C68.4655 108.584 68.2081 108.221 67.8935 107.945C63.0405 103.558 58.2066 99.1449 53.325 94.7753C52.5623 94.0931 52.4097 93.6354 53.2773 92.9273C54.6026 91.8392 55.8802 90.6907 57.0815 89.4817C57.8634 88.6958 58.3782 88.8167 59.1219 89.5248C60.9334 91.252 62.8308 92.9186 64.9664 94.8616C64.9664 94.119 64.9664 93.6958 64.9664 93.2813C64.9664 86.9428 64.9855 80.6129 64.9378 74.2744C64.9378 73.2727 65.2143 72.8668 66.3585 72.9791C67.2451 73.0654 68.1509 73.0223 69.0471 73.0395Z" fill="#05084D"/>
</g>
<defs>
<clipPath id="clip0_8700_57552">
<rect width="138" height="125" fill="white"/>
</clipPath>
</defs>
</svg>
