<svg width="59" height="45" viewBox="0 0 59 45" fill="none" xmlns="http://www.w3.org/2000/svg">
<path opacity="0.28" d="M58.104 0.25C58.104 0.25 57.8159 0.538086 57.2397 1.11426C53.0337 5.03223 50.1528 8.83496 48.5972 12.5225C47.5024 15.1729 46.8687 17.6792 46.6958 20.0415V21.8564C48.5972 22.3174 50.2969 23.2969 51.7949 24.7949C53.9844 26.9844 55.0791 29.6924 55.0791 32.9189C55.0791 36.0879 53.9844 38.7959 51.7949 41.043C49.6055 43.2324 46.9551 44.3271 43.8438 44.3271C41.0781 44.3271 38.4277 43.29 35.8926 41.2158C33.415 39.1992 31.917 36.2607 31.3984 32.4004C31.2256 31.0752 31.1392 29.7788 31.1392 28.5112C31.1392 23.9019 32.2627 19.3789 34.5098 14.9424C38.7158 6.70312 43.959 1.9209 50.2393 0.595703C51.9102 0.25 53.5522 0.0771484 55.1655 0.0771484C56.0874 0.0771484 57.0669 0.134766 58.104 0.25ZM27.25 0.25L26.3857 1.11426C22.1797 5.03223 19.2988 8.83496 17.7432 12.5225C16.6484 15.1729 16.0146 17.6792 15.8418 20.0415V21.8564C17.7432 22.3174 19.4429 23.2969 20.9409 24.7949C23.1304 26.9844 24.2251 29.6924 24.2251 32.9189C24.2251 36.0879 23.1304 38.7959 20.9409 41.043C18.7515 43.2324 16.1011 44.3271 12.9897 44.3271C10.2241 44.3271 7.57373 43.29 5.03857 41.2158C2.56104 39.1992 1.06299 36.2607 0.544434 32.4004C0.371582 31.0752 0.285156 29.7788 0.285156 28.5112C0.285156 23.9019 1.40869 19.3789 3.65576 14.9424C7.86182 6.70312 13.105 1.9209 19.3853 0.595703C21.0562 0.25 22.6982 0.0771484 24.3115 0.0771484C25.2334 0.0771484 26.2129 0.134766 27.25 0.25Z" fill="#C1C1C1"/>
</svg>
