<svg width="29" height="29" viewBox="0 0 29 29" fill="none" xmlns="http://www.w3.org/2000/svg">
<path d="M14.4618 0C6.62355 0 0.269531 6.35401 0.269531 14.1923C0.269531 22.0306 6.62355 28.3846 14.4618 28.3846C22.3001 28.3846 28.6541 22.0306 28.6541 14.1923C28.6541 6.35401 22.3001 0 14.4618 0ZM20.2349 11.6259C20.2408 11.7471 20.2422 11.8683 20.2422 11.9866C20.2422 15.6825 17.4319 19.9417 12.2901 19.9417C10.7708 19.9442 9.28307 19.5078 8.00582 18.6851C8.22314 18.7117 8.44637 18.722 8.67256 18.722C9.98239 18.722 11.1873 18.277 12.1438 17.526C11.5609 17.5146 10.9961 17.3216 10.5281 16.9739C10.0601 16.6262 9.71222 16.1412 9.53297 15.5864C9.95158 15.666 10.3828 15.6493 10.794 15.5376C10.1613 15.4097 9.59239 15.0669 9.18364 14.5673C8.77489 14.0678 8.55149 13.4422 8.55133 12.7967V12.7627C8.92832 12.9712 9.36 13.0983 9.81829 13.1131C9.22517 12.7183 8.8053 12.1118 8.64454 11.4176C8.48378 10.7235 8.59428 9.99412 8.95345 9.37875C9.65561 10.2421 10.5312 10.9484 11.5237 11.4519C12.5161 11.9554 13.6032 12.2448 14.7146 12.3015C14.5733 11.7017 14.6342 11.0721 14.8876 10.5104C15.1411 9.94881 15.573 9.48666 16.1162 9.19582C16.6595 8.90499 17.2836 8.80178 17.8915 8.90223C18.4994 9.00268 19.0571 9.30117 19.4779 9.7513C20.1035 9.62752 20.7035 9.39805 21.252 9.07273C21.0435 9.72045 20.6069 10.2705 20.0234 10.6206C20.5776 10.5538 21.1187 10.4049 21.629 10.1785C21.2542 10.7402 20.782 11.2303 20.2349 11.6259Z" fill="white"/>
</svg>
