<svg width="142" height="125" viewBox="0 0 142 125" fill="none" xmlns="http://www.w3.org/2000/svg">
<g clip-path="url(#clip0_8700_57464)">
<path d="M141.5 98.8642C140.518 101.244 140.203 103.811 139.591 106.29C138.586 110.358 137.687 114.455 136.755 118.54C136.564 119.373 136.362 119.821 135.306 119.477C133.351 118.843 131.341 118.377 129.325 117.988C128.404 117.807 128.375 117.417 128.566 116.655C129.1 114.472 129.583 112.278 130.15 109.828C126.5 111.697 123.096 113.384 119.597 114.868C109.544 119.14 99.1601 122.125 88.3882 123.673C82.6204 124.506 76.8413 125.058 71.0117 124.994C71.0117 122.189 71.0117 119.384 71.0117 116.585C76.5493 116.352 82.0756 116.003 87.5682 115.171C98.2053 113.553 108.444 110.521 118.294 106.086C120.546 105.074 122.787 104.038 125.163 102.699C123.085 102.164 121.26 101.629 119.406 101.25C118.564 101.081 118.497 100.68 118.665 99.9932C119.182 97.84 119.738 95.6925 120.187 93.5276C120.361 92.6721 120.681 92.6721 121.395 92.8525C127.735 94.4587 134.081 96.0242 140.428 97.5897C140.776 97.677 141.147 97.6828 141.5 97.7236V98.8642Z" fill="#05084D"/>
<path d="M71.0112 116.579C71.0112 119.384 71.0112 122.189 71.0112 124.988C60.7954 125.087 50.7087 123.912 40.7568 121.537C26.9916 118.255 14.1024 112.744 2.04445 105.137C1.54461 104.823 1.01669 104.561 0.5 104.27V103.985C1.99391 102.187 2.97112 100.039 4.13929 98.0316C4.70091 97.0597 5.09404 97.0132 6.00386 97.5893C17.2812 104.771 29.3447 110.032 42.2507 113.18C51.1187 115.345 60.1102 116.486 69.2253 116.532C69.8206 116.532 70.4159 116.561 71.0112 116.579Z" fill="#27A6E2"/>
<path d="M70.752 0C73.1164 1.65278 74.5822 4.17268 76.3176 6.39578C84.6464 17.0806 92.5091 28.1088 98.3274 40.5221C100.658 45.4921 102.405 50.6367 102.36 56.3283C102.231 70.9647 91.2061 84.7747 77.306 87.4575C75.1382 87.8765 72.9535 88.4119 70.707 87.9929C70.7183 86.9745 70.7351 85.9619 70.7351 84.9434C70.7407 56.6309 70.7463 28.3125 70.752 0Z" fill="#05084D"/>
<path d="M70.7529 -3.97372e-05C70.7529 28.3125 70.7416 56.6309 70.736 84.9434C70.736 85.9618 70.7192 86.9744 70.7079 87.9929C55.0275 88.5457 38.7743 74.695 39.1955 54.7919C39.3303 48.5648 41.8295 42.9722 44.6095 37.589C51.4444 24.3551 60.1832 12.4947 69.4948 1.05331C69.843 0.628481 70.1126 0.0581566 70.7585 -0.00585938L70.7529 -3.97372e-05Z" fill="#27A6E2"/>
</g>
<defs>
<clipPath id="clip0_8700_57464">
<rect width="141" height="125" fill="white" transform="translate(0.5)"/>
</clipPath>
</defs>
</svg>
