<svg width="128" height="125" viewBox="0 0 128 125" fill="none" xmlns="http://www.w3.org/2000/svg">
<g clip-path="url(#clip0_8700_57522)">
<path d="M64.0054 0C99.4329 0 128.053 27.9783 128 62.5622C127.958 97.1151 99.3692 125 63.9947 125C28.5778 125 -0.0424318 97.0114 4.72253e-05 62.4274C0.0425263 27.8953 28.6309 0 64.0054 0ZM64.1222 6.40866C32.0717 6.57458 6.95599 31.3589 6.59492 61.7534C6.22323 93.6204 32.2629 118.394 63.6231 118.56C95.7585 118.726 121.405 93.5167 121.405 62.4896C121.405 31.5248 95.8965 6.61606 64.1116 6.40866H64.1222Z" fill="#27A6E2"/>
<path d="M64.1221 6.40869C95.9177 6.61609 121.416 31.5248 121.416 62.4897C121.416 93.5167 95.7584 118.726 63.6336 118.56C32.2735 118.394 6.2338 93.6204 6.60549 61.7534C6.95595 31.3589 32.0717 6.57461 64.1221 6.40869ZM63.9416 114.257C93.5283 114.029 117.253 90.8205 117.009 62.3341C116.764 33.6507 92.9229 10.5671 63.7186 10.733C34.3549 10.8989 10.7366 34.3558 10.9808 63.1119C11.2251 91.2457 35.2789 114.485 63.9416 114.257Z" fill="#05084D"/>
<path d="M76.4623 74.6641C75.9738 75.3485 75.2304 75.7011 74.4764 76.0122C61.8813 81.4253 49.2757 86.8385 36.6806 92.2516C35.6293 92.6975 34.6098 92.9049 33.7071 91.982C32.8575 91.1109 33.0805 90.1465 33.5266 89.1717C39.0701 76.8729 44.6136 64.5637 50.1571 52.2649C50.4863 51.539 50.8368 50.8027 51.5377 50.3257C54.1183 52.8456 56.6883 55.3655 59.2689 57.8854C58.9928 58.2587 58.6848 58.6217 58.4299 59.0054C56.136 62.5001 57.7609 67.1769 61.7539 68.5665C64.3664 69.4687 66.6602 68.7843 68.7205 67.1251C71.3011 69.645 73.8817 72.1545 76.4623 74.6745V74.6641Z" fill="#05084D"/>
<path d="M59.2683 57.8855C56.6877 55.3656 54.1177 52.8457 51.5371 50.3258C51.9619 49.6932 52.6203 49.3821 53.2894 49.0917C66.0012 43.6164 78.7237 38.1618 91.4356 32.6864C92.402 32.2716 93.3577 32.1264 94.1967 32.9042C95.0888 33.7338 94.9719 34.6982 94.5153 35.6937C88.9293 48.0755 83.3539 60.4573 77.7785 72.839C77.4706 73.5338 77.1307 74.2183 76.4617 74.6642C73.8811 72.1443 71.3005 69.6347 68.7199 67.1148C68.996 66.7415 69.2934 66.3889 69.5482 65.9948C71.9589 62.3653 70.0792 57.45 65.8207 56.2781C63.3357 55.5937 61.1799 56.2885 59.2577 57.8751L59.2683 57.8855Z" fill="#E74747"/>
<path d="M66.32 21.4554C66.32 22.7205 66.3412 23.9753 66.32 25.2404C66.2881 26.8893 65.4173 27.8848 64.0473 27.8951C62.6031 27.9055 61.711 26.9204 61.6898 25.1989C61.6685 22.679 61.6685 20.1591 61.6898 17.6392C61.7004 16.1874 62.7199 15.0571 63.9518 15.026C65.2261 14.9845 66.2775 16.1563 66.3094 17.6807C66.3306 18.9458 66.3094 20.2006 66.3094 21.4657L66.32 21.4554Z" fill="#05084D"/>
<path d="M21.8984 64.7608C20.6028 64.7608 19.3178 64.7816 18.0222 64.7608C16.5461 64.7297 15.3779 63.7238 15.3673 62.5209C15.3566 61.3284 16.5248 60.2706 17.9903 60.2499C20.6134 60.2188 23.2365 60.2188 25.8702 60.2499C27.5481 60.2706 28.557 61.1521 28.557 62.4898C28.557 63.8483 27.5694 64.7194 25.9021 64.7608C24.564 64.792 23.2365 64.7608 21.8984 64.7608Z" fill="#05084D"/>
<path d="M105.975 64.7608C104.679 64.7608 103.394 64.792 102.098 64.7608C100.431 64.7194 99.4328 63.8483 99.4434 62.4898C99.4434 61.1521 100.452 60.2706 102.13 60.2499C104.753 60.2188 107.376 60.2188 110.01 60.2499C111.476 60.2706 112.644 61.318 112.633 62.5209C112.623 63.7238 111.454 64.7297 109.978 64.7608C108.64 64.792 107.313 64.7608 105.975 64.7608Z" fill="#05084D"/>
<path d="M61.6899 103.43C61.6899 102.165 61.6581 100.911 61.6899 99.6454C61.743 98.0277 62.6563 97.0736 64.0688 97.1047C65.3856 97.1255 66.2883 98.0899 66.3095 99.6558C66.352 102.259 66.3414 104.872 66.3095 107.475C66.2883 108.833 65.2476 109.932 64.0688 109.984C62.8581 110.036 61.743 108.885 61.7006 107.464C61.6581 106.116 61.7006 104.779 61.7006 103.43H61.6899Z" fill="#05084D"/>
</g>
<defs>
<clipPath id="clip0_8700_57522">
<rect width="128" height="125" fill="white"/>
</clipPath>
</defs>
</svg>
