<svg width="106" height="125" viewBox="0 0 106 125" fill="none" xmlns="http://www.w3.org/2000/svg">
<g clip-path="url(#clip0_8700_57480)">
<path d="M36.9409 53.2971C37.4238 52.7585 37.9066 52.2433 38.4124 51.7048C38.5963 51.4706 38.7573 51.213 38.9412 50.9788C39.2631 50.5105 39.608 50.0187 39.9298 49.5504C40.2747 48.9181 40.7116 48.3327 41.1484 47.7707C41.1944 47.7004 41.2634 47.6068 41.3093 47.5365C41.6772 46.9043 42.0911 46.2954 42.5509 45.7334C42.7808 45.3353 43.0107 44.9372 43.3326 44.6094C43.3786 44.3752 43.5395 44.2113 43.7235 44.0708C43.7465 43.8835 43.8844 43.7664 43.9994 43.6493C44.4592 43.017 44.919 42.3614 45.3559 41.7057C45.3559 41.6589 45.3559 41.6354 45.4018 41.612C46.3675 40.1836 47.2182 38.6615 48.4367 37.4672C48.6437 37.1628 48.9196 36.952 49.2185 36.7647C49.9082 36.1793 50.6899 35.7578 51.5866 35.5704C52.2074 35.3363 52.8511 35.3363 53.4949 35.4065C54.2076 35.4299 54.8974 35.5939 55.5182 35.9685C56.2539 36.2729 56.8977 36.7179 57.4265 37.3267C57.5184 37.4204 57.6104 37.514 57.7024 37.6077C58.2312 38.0526 58.599 38.6146 58.9439 39.2001C59.2428 39.6216 59.5417 40.0665 59.8176 40.488C60.0245 40.7924 60.2314 41.0734 60.4384 41.3779C61.427 42.8297 62.4386 44.2816 63.4273 45.7568C63.6112 45.8973 63.7492 46.0847 63.7951 46.3188C64.14 46.834 64.5079 47.3258 64.8528 47.8409C65.7724 49.1757 66.6691 50.5105 67.5888 51.8218C67.7497 52.0092 67.9107 52.2199 68.0716 52.4073C68.6234 52.899 69.1752 53.4142 69.75 53.906C69.8649 53.9762 69.9799 54.0699 70.1178 54.1401C70.6696 54.4445 71.2444 54.7255 71.7962 55.03C73.1987 55.6388 74.6702 55.9198 76.1876 55.8964C77.7281 55.8496 79.2455 55.8964 80.786 55.8964C82.5563 55.8964 84.2807 55.6154 86.0051 55.2876C86.6718 55.1002 87.3616 54.9129 88.0283 54.7255C89.4078 54.2338 90.7643 53.6484 92.0978 52.9693C93.4773 52.1731 94.7649 51.2832 96.0294 50.3466C96.2593 50.1592 96.4892 49.9719 96.7191 49.7846C97.133 49.3162 97.5698 48.8947 98.0527 48.52C98.3516 48.1688 98.6734 47.841 98.9723 47.4897L100.076 46.1783C100.26 45.9442 100.444 45.71 100.605 45.4524C101.363 44.1645 102.122 42.9 102.881 41.612L104.03 38.7317C104.122 38.3102 104.237 37.8887 104.421 37.4906C104.582 36.8115 104.743 36.109 104.904 35.4299L105.226 33.3458C105.226 33.2053 105.226 33.0648 105.249 32.9243C105.272 32.6433 105.318 32.3623 105.341 32.0813C105.341 31.8003 105.341 31.5427 105.341 31.2617C105.341 30.5358 105.341 29.7864 105.341 29.0605C105.341 28.4048 105.341 27.7726 105.341 27.1169C105.295 26.4378 105.249 25.7353 105.203 25.0562C105.203 24.9625 105.203 24.8689 105.203 24.7986C105.18 24.6113 105.134 24.4239 105.111 24.2366C105.088 23.8151 104.904 23.417 104.95 22.9955C104.789 22.3164 104.628 21.6373 104.467 20.9348C104.076 19.7405 103.709 18.5463 103.318 17.3286C102.605 15.7128 101.777 14.1439 100.881 12.6452C100.651 12.3173 100.444 11.9895 100.214 11.6851C99.938 11.3104 99.6621 10.9592 99.4092 10.5845C97.8687 8.71113 96.1444 7.0251 94.259 5.503C93.7992 5.17516 93.3624 4.87074 92.9025 4.5429C92.6036 4.4024 92.3278 4.23848 92.0978 4.00431C90.7183 3.27838 89.3388 2.55245 87.9134 1.92019C87.6375 1.82653 87.3616 1.73286 87.1087 1.61577C85.6142 1.21768 84.1197 0.796178 82.6253 0.398089C82.3034 0.398089 81.9815 0.421506 81.6826 0.257587C81.4527 0.257587 81.2228 0.23417 81.0159 0.210753C80.8319 0.187336 80.648 0.140502 80.4641 0.117085C80.2801 0.117085 80.0962 0.117085 79.9353 0.093668C78.2109 0.093668 76.4635 0.046834 74.7392 0.046834C59.5877 0 44.5052 0 29.4227 0C27.9512 0 26.5027 0 25.0313 0.163919C23.6518 0.304421 22.3183 0.679093 20.9848 0.913263L18.5476 1.70944C18.0878 1.96703 17.582 2.15436 17.0762 2.31828C17.0302 2.43537 16.9152 2.43537 16.8233 2.43537C16.2025 2.78662 15.5817 3.1613 14.915 3.41888C13.5125 4.2619 12.156 5.19858 10.8454 6.20551C10.7765 6.32259 10.6845 6.39284 10.5695 6.43968C9.97176 6.97827 9.39697 7.54028 8.79919 8.07887C8.70722 8.2662 8.56927 8.40671 8.38534 8.50037C7.85653 9.10922 7.32773 9.71806 6.77593 10.3503C6.77593 10.4674 6.70695 10.5377 6.61499 10.5845C5.37344 12.2237 4.31582 13.98 3.37317 15.8065C2.95932 16.8368 2.54547 17.8438 2.13162 18.8741C1.9247 19.6 1.69478 20.3494 1.48785 21.0753C1.3499 21.7076 1.21196 22.3632 1.07401 22.9955C0.936056 23.8619 0.959047 24.7752 0.660156 25.6182V32.5028C0.936056 33.4395 0.913064 34.423 1.11999 35.3831C1.32691 36.2261 1.51085 37.0457 1.71777 37.8887C1.87871 38.2166 1.99367 38.5912 2.03965 38.9659C2.68342 40.5817 3.41915 42.1506 4.22386 43.6727C4.45377 43.9069 4.63771 44.1645 4.72967 44.4689C5.09754 44.9841 5.4654 45.4992 5.81028 46.0144C5.85626 46.0613 5.87925 46.1081 5.92524 46.1783C6.06319 46.272 6.20114 46.3891 6.24712 46.5764C7.6726 48.2625 9.23603 49.7846 10.9834 51.1193C11.3053 51.3535 11.6042 51.5643 11.9261 51.7984C12.3399 51.9623 12.7078 52.2199 13.0526 52.5009C13.6734 52.8288 14.2712 53.18 14.892 53.5079C15.0989 53.5079 15.2828 53.6249 15.4438 53.7654C16.0416 53.9996 16.6163 54.2338 17.2141 54.468C17.7889 54.6553 18.3867 54.8426 18.9615 55.03L20.9848 55.4749C21.5825 55.5686 22.1573 55.6622 22.7551 55.7559C25.675 55.9901 28.572 55.9666 31.4919 55.8261C32.0667 55.8027 32.6185 55.592 33.1703 55.4515C33.8371 55.1705 34.5268 54.866 35.1936 54.585C35.5614 54.3509 35.9063 54.1401 36.2742 53.906C36.5041 53.7186 36.734 53.5547 36.9639 53.3674L36.9409 53.2971ZM34.9407 47.7941C34.5038 48.5903 33.998 49.3162 33.1703 49.7611C33.0554 49.9016 32.9404 49.9953 32.7565 49.9953C32.2736 50.3466 31.7218 50.5339 31.1241 50.651C31.0321 50.651 30.9401 50.651 30.8482 50.6744C29.1008 50.8383 27.3534 50.7681 25.6061 50.7212C24.7324 50.7212 23.8587 50.7681 23.008 50.5339C21.5136 50.3934 20.0881 50.0656 18.6856 49.4801C18.0188 49.246 17.3751 48.9884 16.7773 48.6137C16.3175 48.4732 15.9036 48.2625 15.5357 47.9346C15.1909 47.8409 14.938 47.6068 14.6621 47.396C12.6388 46.1315 10.9834 44.4455 9.55791 42.5253C9.328 42.2209 9.14406 41.893 8.93714 41.5652C8.84517 41.4247 8.75321 41.2842 8.66124 41.1437C8.36235 40.769 8.10944 40.3709 7.97149 39.9026C7.48867 39.1298 7.14379 38.2868 6.86789 37.4204V37.3735C6.86789 37.3735 6.72994 37.233 6.75294 37.1394C6.33909 36.0622 6.0402 34.985 5.92524 33.8142C5.7413 32.9477 5.64934 32.0813 5.64934 31.1915C5.58036 30.5124 5.58036 29.8099 5.64934 29.1308C5.64934 28.4517 5.64934 27.7492 5.64934 27.0701C5.60335 26.4144 5.64934 25.7821 5.78729 25.1264C5.83327 24.3771 5.92524 23.6278 6.15515 22.9253C6.15515 22.4803 6.2931 22.0822 6.45404 21.6842C6.50003 21.4031 6.54601 21.0987 6.70695 20.8646C6.79892 20.326 7.00584 19.8342 7.25875 19.3424C7.30473 19.2722 7.32773 19.1785 7.37371 19.1083C7.35072 18.9678 7.37371 18.8507 7.48867 18.7804C8.04047 17.2818 8.84517 15.9236 9.78783 14.6356C9.94877 14.261 10.2017 13.9565 10.5006 13.6755C10.8454 13.1369 11.2363 12.6686 11.7191 12.2471C11.7881 12.1768 11.8801 12.0832 11.949 12.0129C12.041 11.8022 12.202 11.6617 12.3859 11.568C12.4089 11.5212 12.4549 11.4978 12.4778 11.4509C12.8687 10.9592 13.3515 10.5611 13.8573 10.1864C13.9263 10.0693 14.0183 9.97565 14.1562 9.95223C14.2482 9.81173 14.3632 9.69464 14.5241 9.64781C15.8576 8.59404 17.2831 7.68078 18.8925 7.04852C18.8925 7.04852 19.0764 6.95485 19.1684 6.90802C19.1684 6.90802 19.3294 6.76752 19.4443 6.79093C19.8812 6.55676 20.318 6.36943 20.8008 6.25234C20.9848 6.20551 21.1687 6.13526 21.3296 6.08842C21.8354 5.85425 22.3872 5.69033 22.939 5.6435C23.6058 5.40933 24.2955 5.36249 24.9853 5.24541C25.1232 5.24541 25.2612 5.24541 25.3762 5.22199C25.5601 5.19858 25.744 5.15174 25.9279 5.12832C26.2038 5.12832 26.4797 5.12832 26.7327 5.10491C27.1925 5.08149 27.6753 5.03466 28.1351 5.03466C44.6201 5.03466 61.1051 5.03466 77.5901 5.03466C78.0959 5.03466 78.6247 5.08149 79.1306 5.10491C79.3375 5.10491 79.5214 5.10491 79.7283 5.12832C80.625 5.17516 81.4987 5.29224 82.3724 5.52641C83.5909 5.71375 84.7635 6.065 85.8901 6.55676C87.0857 7.0251 88.2352 7.54028 89.2929 8.2662C89.6837 8.40671 90.0056 8.66429 90.3275 8.9453C92.4887 10.3503 94.305 12.13 95.7995 14.261C95.9374 14.4717 96.0984 14.6825 96.2363 14.8932C96.6502 15.3381 96.9261 15.8533 97.156 16.3919C98.0297 17.7735 98.6964 19.2488 99.1333 20.8411C99.3632 21.4266 99.5471 22.012 99.5931 22.6208C99.892 23.3702 99.961 24.1898 100.053 24.9859C100.168 25.665 100.26 26.3441 100.237 27.0466C100.237 27.7257 100.237 28.4282 100.237 29.1073C100.237 29.8099 100.237 30.4889 100.237 31.1915C100.237 31.9408 100.168 32.6667 100.007 33.3927C100.007 33.5332 99.984 33.6737 99.961 33.8142L99.869 34.0952C99.915 34.4933 99.754 34.8211 99.6851 35.1958C99.4781 36.1559 99.2252 37.0925 98.7884 37.959C98.6964 38.4039 98.5125 38.8254 98.2596 39.2001C98.2136 39.4108 98.1216 39.5747 97.9837 39.7152C97.7308 40.3709 97.3629 40.9563 96.9721 41.5184C96.7191 41.9633 96.4433 42.4082 96.0754 42.7829C95.9374 43.0405 95.7765 43.2746 95.5466 43.4385C95.1097 44.0474 94.6039 44.6094 94.0291 45.0777C93.9831 45.1246 93.9372 45.1714 93.8912 45.2182C93.2704 45.8505 92.6036 46.4125 91.8679 46.8809C91.753 47.0214 91.638 47.1384 91.4541 47.1619C90.8103 47.677 90.1435 48.0985 89.3848 48.403C89.3158 48.4498 89.2239 48.4966 89.1549 48.5435H89.1089C89.1089 48.5435 88.948 48.6371 88.879 48.684H88.833C88.833 48.684 88.6721 48.7776 88.6031 48.8245C88.6031 48.8245 88.4422 48.965 88.3272 48.9415C88.2122 49.0352 88.0973 49.1289 87.9363 49.1055C86.6488 49.7143 85.2923 50.1358 83.8668 50.3232C83.7749 50.3232 83.6829 50.3232 83.6139 50.3232C83.522 50.3466 83.43 50.37 83.338 50.4168C82.8322 50.4871 82.3494 50.6276 81.8436 50.5807C79.6824 50.7447 77.4982 50.6276 75.3369 50.6744C75.199 50.6744 75.084 50.6276 74.9461 50.6042C74.8541 50.6042 74.7621 50.6042 74.6702 50.6042C74.5322 50.5573 74.3943 50.5339 74.2563 50.4871C73.2447 50.1826 72.371 49.6909 71.6813 48.8713C71.4054 48.4966 71.1295 48.0985 70.8766 47.7239L69.4741 45.6632C68.9913 45.0543 68.5314 44.3986 68.1636 43.7196C67.9336 43.3917 67.7267 43.0639 67.4968 42.736C67.1749 42.3614 66.876 41.9633 66.6461 41.5184C65.6805 40.1602 64.6918 38.802 63.8181 37.3735C63.6802 37.2799 63.5652 37.1394 63.5422 36.9755L62.3467 35.2894C62.2087 35.1021 62.0708 34.9148 61.9328 34.7274C61.2891 34.0952 60.6683 33.4395 60.0245 32.8072C59.9785 32.7604 59.9326 32.737 59.8866 32.6901C59.7256 32.5731 59.5877 32.4794 59.4267 32.3623H59.3808C58.829 31.9876 58.2772 31.6364 57.7254 31.3085C57.6334 31.2617 57.5414 31.2149 57.4495 31.168C56.7827 30.9339 56.093 30.6997 55.4262 30.4655C54.7594 30.3719 54.0697 30.2782 53.4029 30.1845C52.0234 30.1611 50.6669 30.3953 49.3564 30.7699C47.9079 31.3085 46.6434 32.1281 45.4478 33.1116C45.4019 33.1585 45.3559 33.2053 45.2869 33.2287C43.9534 34.4933 42.9877 36.0388 41.9071 37.4906C41.8152 37.7014 41.7232 37.9121 41.5163 38.0526C41.1484 38.5912 40.7805 39.1532 40.4127 39.6918C40.0908 40.2304 39.7459 40.7456 39.3551 41.2374C39.2631 41.3779 39.1711 41.4949 39.0792 41.6354C38.2055 42.9234 37.3318 44.2113 36.4581 45.4992C36.0213 46.1081 35.6074 46.7169 35.1706 47.3258C35.1246 47.4897 35.0326 47.6068 34.9177 47.7004L34.9407 47.7941Z" fill="#05084D"/>
<path d="M37.7692 34.8212C38.5969 33.5098 39.4476 32.2219 40.4822 31.0745C41.7238 29.6694 43.0803 28.3815 44.7816 27.4917C45.1035 27.2106 45.4714 26.9999 45.8852 26.8828C46.2991 26.5784 46.7589 26.3911 47.2647 26.2505C47.9545 25.9227 48.6672 25.6651 49.4259 25.5715C49.9777 25.3139 50.5985 25.2905 51.1963 25.2202C51.955 25.1031 52.7367 25.1031 53.4955 25.15C54.0933 25.15 54.691 25.1031 55.2658 25.3139C56.0475 25.3607 56.8293 25.548 57.565 25.829C59.0135 26.2271 60.37 26.836 61.6115 27.7024C62.2783 28.1239 62.945 28.5688 63.4968 29.1543L63.7038 29.3182C64.3935 29.8802 65.0143 30.5124 65.5661 31.2384C65.6121 31.2852 65.635 31.332 65.681 31.3789C66.2558 31.9409 66.6927 32.6434 67.1525 33.2991C67.3134 33.5098 67.5434 33.6972 67.5893 33.9782C67.9572 34.3997 68.2561 34.8914 68.555 35.3832C69.5206 36.6477 70.3943 37.9825 71.268 39.3172C71.4749 39.6217 71.7048 39.9261 71.9118 40.2305C72.2336 40.6052 72.5095 41.0033 72.7395 41.4482C73.4062 42.4083 74.1649 43.345 74.7397 44.3753C75.2685 45.2886 75.9123 45.8037 76.9929 45.593C77.2688 45.5462 77.5677 45.593 77.8666 45.593C78.5333 45.5227 79.2231 45.5227 79.8899 45.593C81.2693 45.593 82.6029 45.4057 83.9594 45.1715L85.9826 44.4924C87.4311 43.8133 88.7876 43.0171 90.0522 42.0102C90.1211 41.8931 90.1901 41.776 90.351 41.7292C90.9258 41.1203 91.5006 40.5115 92.0754 39.9027C92.1674 39.7856 92.2823 39.6451 92.3743 39.528C93.317 38.1932 94.0297 36.7414 94.6275 35.2427L94.8114 34.5636C94.8574 34.4231 94.9034 34.2826 94.9264 34.1421V34.0016C95.0413 33.3459 95.1563 32.6902 95.2483 32.0346C95.4552 30.3017 95.2942 28.5688 95.3632 26.8126C95.2942 26.2037 95.2023 25.6183 95.1333 25.0094C94.9954 24.3304 94.8344 23.6278 94.6965 22.9488C94.4895 22.3399 94.2826 21.7311 94.0757 21.1222C94.0067 20.9583 93.9377 20.771 93.8688 20.6071C93.5929 20.045 93.317 19.5065 93.0411 18.9444C92.7882 18.5698 92.5352 18.1951 92.2823 17.8204C91.0408 15.9705 89.4774 14.4952 87.73 13.1604C86.9253 12.6921 86.1206 12.2472 85.3159 11.7788C84.7871 11.5681 84.2812 11.3339 83.7524 11.1232C83.2006 10.9827 82.6259 10.8422 82.097 10.5846C82.0281 10.6314 81.9591 10.6314 81.9361 10.5612C81.0394 10.4207 80.1198 10.2802 79.2231 10.1631C78.7633 10.1631 78.3264 10.1631 77.8666 10.1396H75.8433C75.1766 10.1865 74.4868 10.1865 73.8201 10.1396H71.7968C71.13 10.1865 70.4403 10.1865 69.7735 10.1396H67.7503C67.0835 10.1865 66.3938 10.1865 65.727 10.1396H63.7038C63.037 10.1865 62.3472 10.1865 61.6805 10.1396H59.6572C58.9905 10.1865 58.3007 10.1865 57.634 10.1396H55.6107C54.9439 10.1865 54.2542 10.1865 53.5874 10.1396H51.5642C50.8974 10.1865 50.2077 10.1865 49.5409 10.1396H47.5176C46.8509 10.1865 46.1611 10.1865 45.4944 10.1396H43.4711C42.8044 10.1865 42.1146 10.1865 41.4479 10.1396H39.4246C38.7578 10.1865 38.0681 10.1865 37.4013 10.1396H35.3781C34.7113 10.1865 34.0216 10.1865 33.3548 10.1396H31.3315C30.6648 10.1865 29.975 10.1865 29.3083 10.1396H27.285C27.285 10.1396 27.1011 10.1396 27.0321 10.1631C26.8022 10.1865 26.5723 10.2099 26.3424 10.2333C25.9745 10.2802 25.6066 10.327 25.2618 10.3738C23.8593 10.6314 22.5258 11.1232 21.1922 11.6383C20.6404 11.9193 20.0656 12.2003 19.5138 12.5048C19.3529 12.5984 19.192 12.6921 19.054 12.7858C18.4562 13.2307 17.8585 13.6756 17.2837 14.0971C17.0078 14.3313 16.7319 14.5655 16.479 14.7996C16.0881 15.2211 15.6742 15.6426 15.2834 16.0642C15.0535 16.3452 14.8236 16.6027 14.6166 16.8837C13.72 18.1483 12.9382 19.483 12.2715 20.8881C11.7887 22.2462 11.3748 23.6044 11.0759 25.0329C11.0299 25.5949 10.961 26.1335 10.915 26.6955C10.915 26.9531 10.915 27.1872 10.915 27.4448C10.869 29.4587 10.8 31.4491 11.1909 33.4396C11.1909 33.5332 11.1909 33.6269 11.2139 33.7206C11.3748 34.2357 11.5128 34.7509 11.6737 35.2895L12.5704 37.4673L13.2831 38.7084C13.49 38.9192 13.651 39.1533 13.7889 39.4109C14.8236 40.7691 16.0421 41.9634 17.4216 42.9469C17.7205 43.1342 17.9964 43.3215 18.2953 43.5089C18.6402 43.6962 19.008 43.8836 19.3529 44.0709C20.0197 44.3519 20.7094 44.6095 21.3762 44.8905C22.6637 45.2417 23.9742 45.4525 25.3077 45.5696C25.9745 45.5227 26.6642 45.4993 27.331 45.5696H29.3543C29.7681 45.4993 30.159 45.5227 30.5728 45.5696C30.8487 45.1949 31.1246 44.8437 31.3775 44.469C31.5155 44.1646 31.6994 43.8836 31.9293 43.6494C32.4121 42.9469 32.895 42.2444 33.4008 41.5419C34.2975 40.1368 35.2631 38.7552 36.2517 37.4205C36.5276 36.9287 36.8265 36.4604 37.2174 36.0623C37.4243 35.5939 37.7462 35.2193 38.0451 34.8212H37.7692Z" fill="#27A6E2"/>
<path d="M53.4494 124.619C47.5176 124.478 41.9536 122.816 36.5736 120.427C33.4467 119.022 30.4808 117.406 27.8827 115.111C22.4567 110.311 20.2955 102.7 22.4567 95.9796C24.365 90.102 29.1013 86.5192 35.1711 86.3787C39.1026 86.3084 42.8043 87.3153 46.4599 88.6735C47.9774 89.2355 49.5178 89.7039 51.0813 90.0785C53.9322 90.7576 56.6222 90.0083 59.2893 89.095C62.5771 87.971 65.8419 86.8236 69.3366 86.4723C81.4532 85.2546 86.2355 95.4879 85.1548 103.496C84.3731 109.374 81.4302 113.87 76.602 117.008C69.7505 121.481 62.2552 124.174 54.0702 124.642C53.8633 124.642 53.6333 124.642 53.4264 124.642L53.4494 124.619Z" fill="#05084D"/>
<path d="M68.9674 68.6757C68.9444 77.3868 61.9549 84.4119 53.3791 84.3885C44.8492 84.3651 37.9517 77.2229 37.9747 68.4883C38.0206 59.8474 44.9871 52.8223 53.494 52.8458C62.0469 52.8458 68.9674 59.9645 68.9444 68.6757H68.9674Z" fill="#05084D"/>
</g>
<defs>
<clipPath id="clip0_8700_57480">
<rect width="104.681" height="125" fill="white" transform="translate(0.660156)"/>
</clipPath>
</defs>
</svg>
