<svg width="46" height="46" viewBox="0 0 46 46" fill="none" xmlns="http://www.w3.org/2000/svg">
<path d="M3 0.5C2.33696 0.5 1.70107 0.763392 1.23223 1.23223C0.763392 1.70107 0.5 2.33696 0.5 3V18C0.5 18.663 0.763392 19.2989 1.23223 19.7678C1.70107 20.2366 2.33696 20.5 3 20.5H18C18.663 20.5 19.2989 20.2366 19.7678 19.7678C20.2366 19.2989 20.5 18.663 20.5 18V3C20.5 2.33696 20.2366 1.70107 19.7678 1.23223C19.2989 0.763392 18.663 0.5 18 0.5H3ZM3 25.5C2.33696 25.5 1.70107 25.7634 1.23223 26.2322C0.763392 26.7011 0.5 27.337 0.5 28V43C0.5 43.663 0.763392 44.2989 1.23223 44.7678C1.70107 45.2366 2.33696 45.5 3 45.5H18C18.663 45.5 19.2989 45.2366 19.7678 44.7678C20.2366 44.2989 20.5 43.663 20.5 43V28C20.5 27.337 20.2366 26.7011 19.7678 26.2322C19.2989 25.7634 18.663 25.5 18 25.5H3ZM28 25.5C27.337 25.5 26.7011 25.7634 26.2322 26.2322C25.7634 26.7011 25.5 27.337 25.5 28V43C25.5 43.663 25.7634 44.2989 26.2322 44.7678C26.7011 45.2366 27.337 45.5 28 45.5H43C43.663 45.5 44.2989 45.2366 44.7678 44.7678C45.2366 44.2989 45.5 43.663 45.5 43V28C45.5 27.337 45.2366 26.7011 44.7678 26.2322C44.2989 25.7634 43.663 25.5 43 25.5H28ZM33 20.5V13H25.5V8H33V0.5H38V8H45.5V13H38V20.5H33Z" fill="white"/>
</svg>
