<svg width="56" height="51" viewBox="0 0 56 51" fill="none" xmlns="http://www.w3.org/2000/svg">
<path d="M10.5 20.5V50.5H0.5V20.5H10.5ZM20.5 50.5C19.1739 50.5 17.9021 49.9732 16.9645 49.0355C16.0268 48.0979 15.5 46.8261 15.5 45.5V20.5C15.5 19.125 16.05 17.875 16.975 16.975L33.425 0.5L36.075 3.15C36.75 3.825 37.175 4.75 37.175 5.775L37.1 6.575L34.725 18H50.5C51.8261 18 53.0979 18.5268 54.0355 19.4645C54.9732 20.4021 55.5 21.6739 55.5 23V28C55.5 28.65 55.375 29.25 55.15 29.825L47.6 47.45C46.85 49.25 45.075 50.5 43 50.5H20.5ZM20.5 45.5H43.075L50.5 28V23H28.525L31.35 9.7L20.5 20.575V45.5Z" fill="white"/>
</svg>
