<svg width="29" height="29" viewBox="0 0 29 29" fill="none" xmlns="http://www.w3.org/2000/svg">
<path d="M14.6656 0C7.02329 0 0.828125 6.35401 0.828125 14.1923C0.828125 22.0306 7.02329 28.3846 14.6656 28.3846C22.308 28.3846 28.5031 22.0306 28.5031 14.1923C28.5031 6.35401 22.308 0 14.6656 0ZM11.2783 20.0747H8.47623V10.8261H11.2783V20.0747ZM9.85998 9.69068C8.97495 9.69068 8.40271 9.0476 8.40271 8.25223C8.40271 7.44061 8.99225 6.81674 9.89601 6.81674C10.7998 6.81674 11.3533 7.44061 11.3706 8.25223C11.3706 9.0476 10.7998 9.69068 9.85998 9.69068ZM21.5123 20.0747H18.7102V14.9492C18.7102 13.7562 18.3037 12.946 17.2904 12.946C16.5164 12.946 16.0566 13.4945 15.8533 14.0223C15.7784 14.21 15.7597 14.4762 15.7597 14.7408V20.0732H12.9561V13.7754C12.9561 12.6208 12.9201 11.6554 12.8826 10.8246H15.3171L15.4454 12.1093H15.5016C15.8706 11.5061 16.7744 10.6161 18.2864 10.6161C20.13 10.6161 21.5123 11.8831 21.5123 14.6062V20.0747Z" fill="white"/>
</svg>
