<svg width="30" height="29" viewBox="0 0 30 29" fill="none" xmlns="http://www.w3.org/2000/svg">
<path d="M18.0243 13.9735C17.6379 13.7241 17.2197 13.5277 16.781 13.3896C16.253 13.218 15.7167 13.0734 15.174 12.9564C14.8376 12.8789 14.5029 12.7941 14.1702 12.7021C13.9674 12.645 13.7712 12.5667 13.5848 12.4685C13.4182 12.3874 13.2705 12.2721 13.1516 12.13C13.0542 12.0058 13.003 11.8517 13.0067 11.6939C13.0067 11.4159 13.1546 11.1824 13.4576 10.9783C13.771 10.7669 14.1953 10.6605 14.7157 10.6605C15.2775 10.6605 15.6855 10.7551 15.9295 10.9458C16.1808 11.1424 16.3996 11.4219 16.5799 11.7767C16.7366 12.0546 16.8771 12.2468 17.0146 12.368C17.1609 12.5011 17.3709 12.5705 17.6399 12.5705C17.9371 12.5705 18.1869 12.4641 18.3865 12.2497C18.5767 12.0577 18.6839 11.7986 18.6851 11.5283C18.6851 11.2504 18.6068 10.9621 18.4575 10.6768C18.2803 10.3592 18.0404 10.081 17.7523 9.85922C17.3939 9.58208 16.9875 9.37358 16.5533 9.24422C16.0033 9.08051 15.4314 9.00272 14.8576 9.01359C14.0445 9.01359 13.3275 9.12891 12.7244 9.35953C12.1138 9.59311 11.6392 9.93314 11.314 10.3693C10.987 10.8051 10.8134 11.3368 10.8202 11.8816C10.8202 12.473 10.9784 12.9756 11.2903 13.3777C11.5964 13.7739 12.0177 14.0903 12.5381 14.3194C13.0496 14.5412 13.6883 14.7378 14.4437 14.9049C14.9966 15.0231 15.446 15.1385 15.7757 15.2449C16.0921 15.3454 16.3538 15.4933 16.5519 15.684C16.6459 15.7761 16.7194 15.8871 16.7676 16.0097C16.8157 16.1322 16.8374 16.2635 16.8313 16.3951C16.8313 16.7676 16.6553 17.0707 16.2946 17.3279C15.9235 17.5881 15.4312 17.7182 14.831 17.7182C14.3934 17.7182 14.0401 17.6546 13.7755 17.5245C13.5364 17.4156 13.3274 17.2502 13.1664 17.0426C12.9986 16.8051 12.8587 16.5492 12.7495 16.2798C12.6575 16.0363 12.5114 15.8169 12.3222 15.6381C12.1455 15.4847 11.9175 15.4034 11.6836 15.4105C11.5442 15.4061 11.4053 15.4293 11.2749 15.4788C11.1445 15.5283 11.0251 15.603 10.9237 15.6988C10.8269 15.7894 10.75 15.8991 10.6979 16.021C10.6457 16.1429 10.6194 16.2743 10.6206 16.4069C10.6206 16.843 10.7774 17.2998 11.0863 17.7552C11.3924 18.212 11.7945 18.5786 12.2838 18.8492C12.9668 19.2217 13.842 19.4095 14.8857 19.4095C15.755 19.4095 16.5178 19.2705 17.1565 19C17.7996 18.725 18.2963 18.3362 18.6319 17.8483C18.9689 17.3574 19.1465 16.7746 19.1405 16.1792C19.1405 15.6648 19.0414 15.2212 18.8448 14.862C18.6469 14.504 18.3654 14.1992 18.0243 13.9735ZM14.8251 0C6.98683 0 0.632812 6.35401 0.632812 14.1923C0.632812 22.0306 6.98683 28.3846 14.8251 28.3846C22.6634 28.3846 29.0174 22.0306 29.0174 14.1923C29.0174 6.35401 22.6634 0 14.8251 0ZM18.2268 22.1385C17.5069 22.1385 16.8283 21.9537 16.234 21.6241C15.7956 21.7093 15.35 21.7518 14.9035 21.7512C10.8927 21.7512 7.63879 18.4012 7.63879 14.2751C7.63879 13.7577 7.69053 13.255 7.78662 12.7701C7.40511 12.1036 7.20528 11.3486 7.2071 10.5807C7.2071 8.18719 9.0935 6.24314 11.4219 6.24314C12.2454 6.24314 13.0126 6.48854 13.6631 6.90988C14.0652 6.83744 14.4821 6.80048 14.9035 6.80048C18.9172 6.80048 22.1696 10.1475 22.1696 14.2766C22.1696 14.825 22.112 15.3617 22.0026 15.8791C22.282 16.4601 22.4402 17.1121 22.4402 17.8054C22.4387 20.1974 20.5538 22.1385 18.2268 22.1385Z" fill="white"/>
</svg>
