<svg width="60" height="60" viewBox="0 0 60 60" fill="none" xmlns="http://www.w3.org/2000/svg">
<path d="M48.2931 41.0097C46.8265 39.5419 45.1128 38.344 43.2306 37.4707C45.8849 35.3203 47.5783 32.039 47.5783 28.3593C47.5783 21.8672 42.1642 16.541 35.672 16.6406C29.2794 16.7402 24.1291 21.9492 24.1291 28.3593C24.1291 32.039 25.8283 35.3203 28.4767 37.4707C26.5941 38.3433 24.8803 39.5414 23.4142 41.0097C20.215 44.2148 18.3986 48.4453 18.2814 52.957C18.2798 53.0195 18.2908 53.0818 18.3137 53.14C18.3365 53.1982 18.3708 53.2513 18.4145 53.2961C18.4582 53.3408 18.5104 53.3764 18.568 53.4007C18.6257 53.425 18.6876 53.4375 18.7501 53.4375H22.0314C22.2833 53.4375 22.4943 53.2383 22.5001 52.9863C22.6115 49.5879 23.9884 46.4062 26.4083 43.9922C27.6467 42.7473 29.1196 41.7603 30.7419 41.0885C32.3642 40.4166 34.1036 40.0732 35.8595 40.0781C39.4279 40.0781 42.7853 41.4668 45.3107 43.9922C47.7248 46.4062 49.1017 49.5879 49.2189 52.9863C49.2248 53.2383 49.4357 53.4375 49.6876 53.4375H52.9689C53.0315 53.4375 53.0934 53.425 53.151 53.4007C53.2087 53.3764 53.2609 53.3408 53.3046 53.2961C53.3483 53.2513 53.3825 53.1982 53.4054 53.14C53.4282 53.0818 53.4392 53.0195 53.4376 52.957C53.3205 48.4453 51.5041 44.2148 48.2931 41.0097ZM35.8595 35.8593C33.8556 35.8593 31.9689 35.08 30.5568 33.6621C29.8481 32.959 29.2883 32.1204 28.9108 31.1962C28.5333 30.2721 28.3458 29.2814 28.3595 28.2832C28.3771 26.3613 29.1447 24.5039 30.4865 23.1269C31.8927 21.6855 33.7736 20.8828 35.7833 20.8593C37.7697 20.8418 39.6974 21.6152 41.1154 23.0039C42.5685 24.4277 43.3654 26.332 43.3654 28.3593C43.3654 30.3633 42.5861 32.2441 41.1681 33.6621C40.4724 34.3611 39.6451 34.9152 38.7339 35.2923C37.8227 35.6695 36.8457 35.8622 35.8595 35.8593ZM21.1818 29.9062C21.1291 29.3965 21.0998 28.8808 21.0998 28.3593C21.0998 27.4277 21.1876 26.5195 21.3517 25.6347C21.3927 25.4238 21.2814 25.207 21.088 25.1191C20.2912 24.7617 19.5587 24.2695 18.9259 23.6484C18.1803 22.9254 17.5935 22.0549 17.2031 21.0925C16.8126 20.13 16.6271 19.0967 16.6583 18.0586C16.7111 16.1777 17.4669 14.3906 18.7853 13.0429C20.2326 11.5605 22.1779 10.7519 24.2462 10.7754C26.1154 10.7929 27.9201 11.5136 29.2853 12.791C29.7482 13.2246 30.1466 13.705 30.4806 14.2207C30.5978 14.4023 30.8263 14.4785 31.0255 14.4082C32.0568 14.0508 33.1466 13.7988 34.2658 13.6816C34.5939 13.6465 34.7814 13.2949 34.6349 13.0019C32.7306 9.23435 28.84 6.63278 24.34 6.56247C17.8419 6.46286 12.4279 11.789 12.4279 18.2754C12.4279 21.955 14.1212 25.2363 16.7755 27.3867C14.9123 28.248 13.1955 29.4375 11.7072 30.9258C8.49624 34.1308 6.67983 38.3613 6.56265 42.8789C6.56108 42.9414 6.57205 43.0036 6.59491 43.0619C6.61776 43.1201 6.65204 43.1732 6.69573 43.2179C6.73941 43.2627 6.79162 43.2983 6.84927 43.3226C6.90691 43.3469 6.96884 43.3594 7.0314 43.3593H10.3185C10.5705 43.3593 10.7814 43.1601 10.7873 42.9082C10.8986 39.5097 12.2755 36.3281 14.6955 33.914C16.4181 32.1914 18.5275 30.9961 20.8302 30.416C21.0587 30.3574 21.2111 30.1406 21.1818 29.9062Z" fill="white"/>
</svg>
