<svg width="84" height="125" viewBox="0 0 84 125" fill="none" xmlns="http://www.w3.org/2000/svg">
<g clip-path="url(#clip0_8677_6751)">
<path d="M45.1761 0C46.6368 0.490282 48.1624 0.326854 49.6556 0.468491C51.7006 0.664604 53.7564 0.686394 55.7689 1.20936C58.5604 1.92844 59.729 3.15959 60.086 6.03591C60.6595 10.6228 61.1897 15.2205 62.4231 19.6875C63.1373 22.2806 64.0461 24.7865 66.1344 26.6495C48.3139 26.6495 30.4826 26.6495 12.6621 26.6386C15.194 24.4378 15.9947 21.3545 16.7737 18.2821C17.8016 14.2182 18.3101 10.0671 18.7321 5.90517C18.9593 3.67166 20.063 2.22261 22.1296 1.48174C24.207 0.74087 26.4035 0.697289 28.5675 0.512072C30.1796 0.38133 31.7918 0.326854 33.404 0.228798C33.6312 0.217903 33.9017 0.294169 34.0316 0H45.1869L45.1761 0Z" fill="#05084D"/>
<path d="M12.6514 26.6277C30.4719 26.6277 48.3032 26.6277 66.1237 26.6386C72.6481 27.8371 76.9004 32.0644 78.1122 38.5797C78.188 38.9719 78.1555 39.386 78.1555 39.7891C78.1555 45.4328 78.1663 51.0656 78.1771 56.7092C78.1771 60.577 78.1771 64.4557 78.1771 68.3235C78.1771 73.7601 78.0581 79.2077 78.1771 84.6335C78.3178 90.7893 73.3947 96.8034 67.8441 97.9365C67.2598 98.0563 66.7404 98.4268 66.1129 98.3941C48.2924 98.3941 30.4611 98.3941 12.6406 98.3941C9.44869 97.7404 6.5814 96.4438 4.32002 94.0251C1.90717 91.4321 0.576311 88.2943 0.565491 84.786C0.489752 69.936 0.424832 55.075 0.587131 40.2249C0.652051 33.873 4.60134 28.9266 10.7795 27.0853C11.3963 26.9001 12.0238 26.7694 12.6406 26.606L12.6514 26.6277ZM39.4417 32.9687C32.809 32.9687 26.1764 33.0777 19.5545 32.936C12.7704 32.7835 7.38207 38.1766 7.46863 45.0405C7.63093 56.6766 7.51191 68.3235 7.52273 79.9595C7.52273 80.8965 7.53355 81.8443 7.71749 82.7486C8.84277 88.2834 13.4088 92.0422 19.046 92.0531C32.506 92.0749 45.9661 92.0531 59.4261 92.0531C66.4483 92.0531 71.3606 87.0849 71.3714 79.9704C71.3714 68.3344 71.3714 56.6875 71.3714 45.0514C71.3714 37.8497 66.5024 32.9687 59.3288 32.9578C52.6961 32.9578 46.0743 32.9578 39.4417 32.9578V32.9687Z" fill="#27A6E2"/>
<path d="M12.6504 98.4268C30.4709 98.4268 48.3022 98.4268 66.1227 98.4268C63.2446 101.107 62.5088 104.768 61.6973 108.363C60.875 112.013 60.453 115.739 60.031 119.454C59.7822 121.612 58.5704 122.897 56.6119 123.605C54.8375 124.248 52.9764 124.325 51.1262 124.499C42.5243 125.294 33.9333 125.12 25.3422 124.292C24.2169 124.183 23.1025 123.976 22.0421 123.573C20.0296 122.81 18.9476 121.383 18.7204 119.204C18.2227 114.432 17.6384 109.671 16.2967 105.04C15.5826 102.567 14.7062 100.17 12.6504 98.4377V98.4268Z" fill="#05084D"/>
<path d="M78.1875 68.3236C78.1875 64.4558 78.1875 60.5772 78.1875 56.7094C79.3128 56.6876 80.4489 56.6222 81.5741 56.644C82.7535 56.6658 83.4568 57.3522 83.4785 58.5507C83.5217 61.1982 83.5217 63.8457 83.4785 66.4823C83.4568 67.6808 82.7427 68.3781 81.5741 68.389C80.4489 68.4108 79.3128 68.3454 78.1875 68.3236Z" fill="#54C1ED"/>
<path d="M50.8239 58.4089C47.1126 58.4089 44.2129 55.489 44.2129 51.7738C44.2129 48.015 47.1451 45.1277 50.9429 45.1495C54.6001 45.1713 57.5539 48.1784 57.5106 51.8392C57.4674 55.5217 54.5135 58.4198 50.8131 58.4089H50.8239Z" fill="#F17870"/>
<path d="M50.8564 79.8833C47.1018 79.8833 44.2237 77.0288 44.2129 73.3027C44.2129 69.5111 47.091 66.6566 50.9213 66.6675C54.5892 66.6675 57.5539 69.6528 57.5323 73.3136C57.5106 76.9852 54.5568 79.8942 50.8564 79.8942V79.8833Z" fill="#5FC1AA"/>
<path d="M28.0263 45.1387C31.7484 45.1496 34.5832 48.0586 34.5724 51.8283C34.5507 55.5762 31.6618 58.4307 27.9289 58.4199C24.2177 58.3981 21.372 55.4891 21.3828 51.7302C21.3937 47.9932 24.2826 45.1278 28.0263 45.1496V45.1387Z" fill="#F9D783"/>
<path d="M27.9397 66.6457C31.7051 66.6457 34.5399 69.4675 34.5507 73.2372C34.5507 77.0287 31.7483 79.8942 28.0046 79.8942C24.2609 79.8942 21.3936 77.0505 21.3828 73.2917C21.3828 69.5111 24.196 66.6457 27.9397 66.6348V66.6457Z" fill="#5BC9EC"/>
</g>
<defs>
<clipPath id="clip0_8677_6751">
<rect width="83" height="125" fill="white" transform="translate(0.5)"/>
</clipPath>
</defs>
</svg>
