<svg width="29" height="29" viewBox="0 0 29 29" fill="none" xmlns="http://www.w3.org/2000/svg">
<path d="M17.0504 13.9454L13.813 12.3961C13.5305 12.2616 13.2984 12.4124 13.2984 12.7332V15.6515C13.2984 15.9723 13.5305 16.1231 13.813 15.9885L17.049 14.4392C17.3329 14.3032 17.3329 14.0814 17.0504 13.9454ZM14.7398 0C7.09751 0 0.902344 6.35401 0.902344 14.1923C0.902344 22.0306 7.09751 28.3846 14.7398 28.3846C22.3822 28.3846 28.5773 22.0306 28.5773 14.1923C28.5773 6.35401 22.3822 0 14.7398 0ZM14.7398 19.9579C7.65677 19.9579 7.53281 19.303 7.53281 14.1923C7.53281 9.0816 7.65677 8.42668 14.7398 8.42668C21.8229 8.42668 21.9469 9.0816 21.9469 14.1923C21.9469 19.303 21.8229 19.9579 14.7398 19.9579Z" fill="white"/>
</svg>
